<svg xmlns="http://www.w3.org/2000/svg" width="40" height="40" fill="none" viewBox="0 0 40 40">
  <path fill="#CF987E" fill-rule="evenodd" d="m27.554 10.686-.744-.743a3.75 3.75 0 0 0-5.304 0L9.104 22.345l-1.968-1.966a1.25 1.25 0 0 0-1.767 1.768l5.361 5.357-2.21 2.216-1.863-1.861a1.25 1.25 0 1 0-1.766 1.768l5.46 5.458a1.251 1.251 0 0 0 1.768-1.769l-1.83-1.83 2.21-2.215 5.368 5.364a1.25 1.25 0 0 0 1.768-1.769l-1.688-1.686 12.4-12.399a3.75 3.75 0 0 0 0-5.303l-1.025-1.024 5.314-5.32a1.252 1.252 0 0 0-.001-1.769 1.252 1.252 0 0 0-1.769.001l-5.311 5.32ZM16.178 29.414l12.4-12.4a1.25 1.25 0 0 0 0-1.769l-3.535-3.535a1.249 1.249 0 0 0-1.768 0l-1.072 1.071 1.385 1.385a1.25 1.25 0 0 1-1.768 1.768l-1.385-1.384-2 2 1.385 1.384a1.25 1.25 0 0 1-1.767 1.767l-1.385-1.384-1.965 1.964 1.385 1.385a1.25 1.25 0 0 1-1.768 1.768l-1.385-1.384-2.062 2.063 5.305 5.3Z" clip-rule="evenodd"/>
</svg>
