<svg xmlns="http://www.w3.org/2000/svg" width="40" height="40" fill="none" viewBox="0 0 40 40">
  <path fill="#CF987E" d="m24.29 1.851-1.32 2.638a.333.333 0 0 1-.149.149l-2.638 1.319a.333.333 0 0 0 0 .596l2.638 1.319a.333.333 0 0 1 .149.149l1.319 2.637a.333.333 0 0 0 .596 0l1.319-2.637a.333.333 0 0 1 .149-.15l2.638-1.318a.333.333 0 0 0 0-.596l-2.638-1.32a.333.333 0 0 1-.149-.148L24.886 1.85a.333.333 0 0 0-.596 0Zm7.78 6.603-1.298 3.893a.333.333 0 0 1-.21.21l-3.894 1.298a.333.333 0 0 0 0 .633l3.893 1.298c.1.033.178.11.21.21l1.299 3.894a.333.333 0 0 0 .632 0L34 15.996a.334.334 0 0 1 .21-.21l3.894-1.298a.333.333 0 0 0 0-.633l-3.893-1.297a.334.334 0 0 1-.211-.211l-1.298-3.893a.333.333 0 0 0-.632 0Z"/>
  <path fill="#CF987E" fill-rule="evenodd" d="M17.346 22.774c4.712 4.712 12.073 5.12 17.094 1.177a12.298 12.298 0 0 0 1.133-1.005c.853-.854 2.604-.35 2.346.83a18.014 18.014 0 0 1-.594 2.101C34.829 33.024 27.98 38.334 20 38.334 9.875 38.334 1.666 30.126 1.666 20c0-8.111 5.485-15.029 12.782-17.43l.09-.028a18.175 18.175 0 0 1 1.786-.479c1.239-.264 1.745 1.588.85 2.484a12.827 12.827 0 0 0-.854.944c-4.104 5.023-3.746 12.511 1.026 17.283Zm-2.357 2.357c4.552 4.552 11.131 5.919 16.823 3.985C29.047 32.67 24.75 35 20 35c-8.284 0-15-6.716-15-15 0-4.848 2.427-9.215 6.1-11.97-2.074 5.753-.738 12.473 3.889 17.1Z" clip-rule="evenodd"/>
</svg>
